<svg xmlns="http://www.w3.org/2000/svg" viewBox="0 0 1364 960" id="growth-strategy">
  <circle cx="515.26" cy="350.65" r="87.07" fill="#fff7cc"></circle>
  <circle cx="1110.07" cy="736.54" r="87.07" fill="#fff7cc"></circle>
  <path fill="#ffcb3b" d="M1152,191.13c-47.73,4-143.7,12-191.41,16-5.58.47-6.82,7.34-2.23,12.38l54.89,60.11L850.1,425.72c-15.74-9-78.21-44.65-92.68-52.89l-18.84,15.84L503.05,586.77l-91.18-24.64-11.17,7.69L200.85,747.33a8,8,0,0,0,8,13.85c37.69-17.74,170.26-104,212.44-123.88C434.45,640.87,508.8,661,520.12,664l14.13-11.88L765.06,458l94.12,53.72c2.62-2.37,192-172,201.37-180.37,11.69,13,43.13,47.06,55.24,60.49,4.58,5,11.54,4.53,12.59-1.05,8.23-45.72,24.85-137.74,33.07-183.34C1164.18,200.4,1160.63,190.9,1152,191.13Z"></path>
  <path fill="#3c217d" d="M379.17,314.81c-7.52,2-14.31,9-14,16.81,1.49,38.19-48.3,12-67.53,33.51-23.2,26-6.05,63.45,18.31,76.1,25.26,13.13,48.1-15.51,41.65-44.47-1.91-8.57,12.41-14.67,23.29-22.76,11.54-8.57,2.09-25.68,5-37.7.82-6.28,16-10.52,16.63-16.81C402.38,312.46,384.27,313.63,379.17,314.81Z"></path>
  <path fill="#fa5dd9" d="M394.28,318.69c-.47,5.21-.29,11.23,3.74,10.88l2.33-15.65C397.56,313.25,394.75,313.48,394.28,318.69Z"></path>
  <path fill="#3c217d" d="M442.83,299.37c-4.85-2.14-12.84-.48-17.14,2.62-24.35-8.19-34.61,20.89-24.49,39.57,6.56,14.39,24.8,18.62,41,9.54l10.45-16.43C465,323.5,454,304.63,442.83,299.37Z"></path>
  <path fill="#b182ff" d="M647.27,336.1a5.62,5.62,0,0,0-6,.65l.16-.34a5.64,5.64,0,0,0-8.56-6.91l.56-1.15a5.65,5.65,0,1,0-10.13-5l-1.14,2.31a5.64,5.64,0,0,0-10.52-3.94l-13.18,26.73a4.68,4.68,0,0,0-.18.48l-3.16,3.91-1.26-15.61a5.65,5.65,0,1,0-11.26.91s.76,16.3,1.12,21.72c.06.82-.83,16.83-.83,16.83L616,395.48c21-15.87,30.16-34.91,33.81-51.82A5.64,5.64,0,0,0,647.27,336.1Z"></path>
  <path fill="#3c217d" d="M607.6 355.24a.47.47 0 0 0 .63-.22l14.38-29.17a.47.47 0 0 0-.22-.63.48.48 0 0 0-.63.21l-14.37 29.18A.47.47 0 0 0 607.6 355.24ZM618.13 359.3a.47.47 0 0 0 .63-.21l14.38-29.17a.47.47 0 0 0-.85-.42l-14.38 29.17A.48.48 0 0 0 618.13 359.3ZM626.6 366.53a.47.47 0 0 0 .63-.21l14.38-29.17a.47.47 0 0 0-.85-.42L626.39 365.9A.46.46 0 0 0 626.6 366.53Z"></path>
  <path fill="#fa5dd9" d="M473.09,378c21.94,6.46,57.67,33.88,82.6,47.34,38.73,24.43,16.07,75.7-29,52.52-26.5-14.11-50.36-26.9-71.1-48.62C438.33,411.16,434.88,378.93,473.09,378Z"></path>
  <path fill="#fa5dd9" d="M583.1,368.54c-16,21.8-31.06,44-47.07,65.85-22.66,38.36,20.08,52.53,38.2,31.34,20.11-23.52,33.2-46.82,46.33-74.63C608.76,383.6,594.9,376,583.1,368.54Z"></path>
  <path fill="#b182ff" d="M428.81,378.41l16.78-1.16L445,361.67l-.33-5.68-16.93-4.89.27,7.33Z"></path>
  <path fill="#3c217d" d="M435,362c3,3.25,7.56,5.63,10-.37l-.33-5.68L429,352.87S432.53,359.36,435,362Z"></path>
  <polygon fill="#b182ff" points="482.71 725.14 430.36 711.56 418.02 763.94 470.37 777.51 482.71 725.14"></polygon>
  <path fill="#b182ff" d="M620.59,709.3l-49.9,20.4,21.46,49.35c20.24-2.09,38-7.43,49.9-20.4Z"></path>
  <path fill="#3c217d" d="M636.4,745.24c3-.08,46.64-.64,66.85,32.06a64.15,64.15,0,0,1,9.22,31.34l-143.8-.07h0l10.56-60.69S614.41,770.75,636.4,745.24Z"></path>
  <rect width="154.77" height="16.93" x="563.55" y="808.64" fill="#fa5dd9" rx="7.88"></rect>
  <path fill="#fff" d="M672.84 781.61a1.91 1.91 0 0 1-.7-.12 2.08 2.08 0 0 1-1.27-2.67c6.59-18.64 14.88-20.63 15.8-20.8a2.09 2.09 0 0 1 .79 4.11c-.22.06-7 2-12.65 18.09A2.08 2.08 0 0 1 672.84 781.61ZM656 773a1.88 1.88 0 0 1-.7-.12 2.1 2.1 0 0 1-1.28-2.67c6.6-18.63 14.89-20.63 15.81-20.79a2.09 2.09 0 0 1 .79 4.11c-.23.06-7 2-12.65 18.08A2.08 2.08 0 0 1 656 773Z"></path>
  <path fill="#3c217d" d="M476.44,745.24c3-.08,46.65-.64,66.85,32.06a64,64,0,0,1,9.22,31.34l-143.79-.07h0l10.55-60.69S454.45,770.75,476.44,745.24Z"></path>
  <rect width="154.77" height="16.93" x="403.6" y="808.64" fill="#fa5dd9" rx="7.88"></rect>
  <path fill="#fff" d="M512.88 781.61a1.91 1.91 0 0 1-.7-.12 2.08 2.08 0 0 1-1.27-2.67c6.59-18.64 14.88-20.63 15.81-20.8a2.09 2.09 0 0 1 .78 4.11c-.22.06-6.94 2-12.65 18.09A2.08 2.08 0 0 1 512.88 781.61ZM496 773a1.91 1.91 0 0 1-.7-.12 2.1 2.1 0 0 1-1.28-2.67c6.6-18.63 14.89-20.63 15.81-20.79a2.09 2.09 0 0 1 .79 4.11c-.22.06-6.95 2-12.65 18.08A2.08 2.08 0 0 1 496 773Z"></path>
  <path fill="#57d8f3" d="M581.88,750.14,625,733.63c13.62-5.36,15.4-19.8,5.91-41C595.54,611,551.33,535.17,510.61,473.25c-28.21-42.89-48.2,21.59-48.2,21.59l92.33,243.52C561.47,748.92,572.66,753.77,581.88,750.14Z"></path>
  <path fill="#57d8f3" d="M473.89,736.48c-21.31-2.11-59.92,2.85-58.71-27.18,2.13-28.93,15.34-99.84,14.06-118.91-16.74-5.43-40.32-8.56-48.31-24.86-9-18.34-1.24-50.54.61-67.13l85.82,5.08v-.26a59.44,59.44,0,0,0,.73,11.71c9.85.56-6.65,9.45,2.77,13.14,22.48,8.79,43.16,28.06,44.29,58.93,1.42,31.23-12,94.84-14.16,127.29C500.19,727.42,488,737.39,473.89,736.48Z"></path>
  <path fill="#fff" d="M437.68,711.39h-.13a1,1,0,0,1-.87-1.11l15.73-126.71c-27.75-3.92-48.2-11.17-64.28-22.76a1,1,0,0,1,1.17-1.63c16,11.54,36.45,18.7,64.36,22.55a1,1,0,0,1,.86,1.11L438.67,710.51A1,1,0,0,1,437.68,711.39Z"></path>
  <path fill="#fff" d="M479.06,716.71c-16.2,0-35.86-3.15-54.66-8.88a1,1,0,0,1,.58-1.91c22.67,6.91,46.58,10,64,8.35a1,1,0,0,1,1.09.89,1,1,0,0,1-.9,1.1C486,716.56,482.6,716.71,479.06,716.71Z"></path>
  <path fill="#fa5dd9" d="M505.89,455.41c0,20.15-14.13,35.78-17.69,51.93a100.78,100.78,0,0,1-37.2,8.15c-21.71.48-42.41-6.29-64.57-15.64l-3.24-59.49-3.07-56.56h0l0-.6c3.18-4.84,17.68-8.31,29.22-10.37a102.78,102.78,0,0,1,22.81-2.52,151.22,151.22,0,0,1,29.4,3.32c.61,0,19.07,5.36,22.74,10.43C499.93,405.67,505.93,432.58,505.89,455.41Z"></path>
  <path fill="#3c217d" d="M494.53,450.84c.48-.76-.76-28.9-.76-28.9l14.89,26.81Z"></path>
  <polygon fill="#fff" points="427.48 370.29 446.91 371.18 453.53 516.46 423.58 516.46 427.48 370.29"></polygon>
  <path fill="#3c217d" d="M437.44,527.49c-21.71.48-28.85-18.29-51-27.64l-3.24-59.49,25.49-21.15L391.5,481.68Z"></path>
  <path fill="#b182ff" d="M446.91,371.18s-1.72,10.56-8.46,10.41c-6.39-.14-10.58-4.82-11-11.3C436.22,368.34,441.12,367.27,446.91,371.18Z"></path>
  <path fill="#3c217d" d="M587.62,446.59H461.11a3.06,3.06,0,0,0-3,2.58l-14.47,87a3.07,3.07,0,0,0,3,3.57h121.2A9.31,9.31,0,0,0,577,532l13.61-81.78A3.08,3.08,0,0,0,587.62,446.59Z"></path>
  <path fill="#b182ff" d="M456.56,522.79a69.64,69.64,0,0,0-20.11-8.32c-4.6-1.13-16.25-2.2-25.7,3l-9.23,25.65c-1,2.83,5.38,12.77,8.45,14.69,9.8,6.14,24.57,9.42,27.27,10.41,6.38,2.56,11.73-6.34,6.61-10.78,6.25,2.59,11.7-6,6.89-10.54,7,2,11.12-8.3,4.84-11.77C461.81,534.22,462.65,524.77,456.56,522.79Z"></path>
  <path fill="#3c217d" d="M434 528.53h0l21.29 7.15a.54.54 0 0 0 .68-.34.55.55 0 0 0-.34-.68l-21.28-7.15a.54.54 0 0 0-.36 1ZM429.82 539.9l20.73 7.55a.53.53 0 0 0 .69-.32.54.54 0 0 0-.32-.69l-20.73-7.55a.54.54 0 0 0-.37 1ZM425.62 551.44l18.1 6.6a.54.54 0 0 0 .69-.33.53.53 0 0 0-.32-.69L426 550.43a.54.54 0 1 0-.37 1ZM487.42 539.76c14.18 7.37 29.1 20.17 32.76 33.5 5.57 20.31-5 43.53-5.32 63.85C511.79 603.89 520.28 560.62 487.42 539.76Z"></path>
  <path fill="#fa5dd9" d="M418.38,407.5c-6.13,22-33,58.17-46.08,83.31-23.84,39.09-75.45,17.21-53-28.24,13.71-26.72,26.14-50.77,47.53-71.84C384.64,373.24,416.82,369.3,418.38,407.5Z"></path>
  <path fill="#fa5dd9" d="M417.08,513.8C395,498.25,376.26,483.56,354.13,468c-38.83-21.85-52.1,21.18-30.53,38.85,23.93,19.61,47.49,32.22,75.57,44.76C406.43,539.67,409.82,525.76,417.08,513.8Z"></path>
  <path fill="#b182ff" d="M427.6,319.8c6.49-6.6,19.08-4.41,23.38,7.65,3.56,10,4.3,26.31-6.82,30.13C432.32,361.66,406.56,341.22,427.6,319.8Z"></path>
  <path fill="#3c217d" d="M442.49,349.38a5.42,5.42,0,0,1-3.71-.92.5.5,0,0,0-.51.86,6.25,6.25,0,0,0,4.22,1.05.5.5,0,1,0,0-1Z"></path>
  <path fill="#b182ff" d="M425.48,346c-.5-2.36-1.54-5.58-3.75-6.54-2.62-1.13-6.65.33-5.36,5.16,2.51,9.34,10.89,5.88,10.89,5.88Z"></path>
  <path fill="#3c217d" d="M424,345.83s1.32-8.8,3.27-10.69c2-2.13,8.88-16.14,7.22-17.87,3,1.73,9,5.7,10.76,5.74,3.87.08,5.49,4.85,7.34,8.9,1.23-13.79-11.73-18.29-21.91-16.56C412,318.54,417.58,339.85,424,345.83Z"></path>
  <path fill="#3c217d" d="M436 333.81c-1.84-.21-5.85 1.47-5.74 4.57a6.2 6.2 0 0 1 5.46-2.59C436.81 335.9 436.44 333.86 436 333.81ZM444.41 331.63c1.62-.9 6-.88 7 2a6.21 6.21 0 0 0-6-.31C444.48 333.85 444.05 331.83 444.41 331.63Z"></path>
  <circle cx="447.79" cy="337.69" r="1.8" fill="#3c217d"></circle>
  <path fill="#3c217d" d="M447.48,335.92c1.36-.21,1.79.92,3.16.57A1.91,1.91,0,0,1,447.48,335.92Z"></path>
  <circle cx="448.33" cy="337.24" r=".42" fill="#fff"></circle>
  <circle cx="434.89" cy="340.43" r="1.8" fill="#3c217d"></circle>
  <path fill="#3c217d" d="M434.48,338.68c-1.33.34-1.29,1.55-2.68,1.77A1.91,1.91,0,0,0,434.48,338.68Z"></path>
  <circle cx="435.18" cy="339.81" r=".42" fill="#fff"></circle>
  <path fill="#3c217d" d="M445.19,342.83c-1.1-1.85-3.56-2.77-3.81-5.12-.06-.59-1-.4-.9.19.22,2,1.91,3.22,3.23,4.54.55.55,1.26,1.41.79,2.22s-1.51.94-2.32,1.08a.46.46,0,0,0,.18.9,4.26,4.26,0,0,0,2.71-1.21A2.19,2.19,0,0,0,445.19,342.83Z"></path>
  <path fill="#fff" d="M422.28 429.33a1 1 0 0 1-.94-.67c-3.23-9.09-11.29-28.24-11.37-28.43a1 1 0 0 1 .29-1.16l8.62-7.09-12.69-4.21a1 1 0 0 1-.68-.78 1 1 0 0 1 .37-.95l16.36-12.9a1 1 0 1 1 1.24 1.57l-14.9 11.75 12.65 4.19a1 1 0 0 1 .32 1.72l-9.44 7.77c1.47 3.52 8.21 19.7 11.11 27.85a1 1 0 0 1-.61 1.28A1 1 0 0 1 422.28 429.33ZM455.58 429.33a1.09 1.09 0 0 1-.39-.08 1 1 0 0 1-.53-1.31l12.25-28.77-10.65-5.9a1 1 0 0 1-.52-.83 1 1 0 0 1 .44-.87l11.23-7.52-14.65-8.11a1 1 0 0 1 1-1.75l16.08 8.91a1 1 0 0 1 .07 1.7l-11.22 7.52 10 5.54a1 1 0 0 1 .43 1.26l-12.6 29.6A1 1 0 0 1 455.58 429.33Z"></path>
  <path fill="#ffcb3b" d="M693.33,233.3l-2.84-3.81-3.42-4.58-2.84-3.81s-38.21-29-52.06,8.77c0,0,8,7.69,15.76,7.31,0,0-21.57,4.55-26.3,40.09h0l0,0c35.42,5.6,45.93-13.78,45.93-13.78-2.59,7.37,2.52,17.2,2.52,17.2C710.22,278.19,693.33,233.3,693.33,233.3Z"></path>
  <path fill="#3c2673" d="M676.08,189.32s-12,4.23-12,9.1c0,11.66,41.09,59.06,47,59.48s13.08-7,13.08-7C706.81,235.32,691.12,213.54,676.08,189.32Z"></path>
  <path fill="#ff6ea5" d="M671.67 174.27s-34.2-31.78-69.47-34.52c0 0 44.64-44.48 103-11.44ZM735.73 254.43s20.71 41.84 13.27 76.42c0 0 55.37-30.09 40.33-95.44Z"></path>
  <path fill="#9777c7" d="M729.22,255.75a1,1,0,0,1-.57-.18c-20.94-14.62-50.26-51.08-58.16-78a1,1,0,0,1,0-.7,193.77,193.77,0,0,1,44.83-57.75c17.58-15.19,36.87-25.45,57.33-30.5,25.57-6.31,53-4.44,81.64,5.55a10,10,0,0,1,6.7,9c1.42,30.26-4.62,57.12-18,79.83-10.68,18.17-26,33.73-45.58,46.25a193.83,193.83,0,0,1-68.13,26.5Zm-56.7-78.38c7.89,26.36,36.39,61.82,57,76.33a192.34,192.34,0,0,0,67-26.18c30.3-19.39,65.75-56.7,62.57-124.27a8.09,8.09,0,0,0-5.36-7.19h0c-63.86-22.31-109.72,1-136.95,24.53A192.16,192.16,0,0,0,672.52,177.37Z"></path>
  <circle cx="795.9" cy="138.58" r="29.49" fill="#3c2673"></circle>
  <path fill="#57d8f3" d="M806.89,153.32a17.79,17.79,0,0,1-2.12,1.37h0a18.45,18.45,0,1,1,2.13-1.38Z"></path>
  <path fill="#ff6ea5" d="M743.58 181.78a139.4 139.4 0 0 0-68.32 51c-.93 1.34 1.48 4.57 3 4.06a139.29 139.29 0 0 0 68.33-51C747.56 184.53 745.12 181.25 743.58 181.78ZM845.8 95.1 876.66 79a4 4 0 0 1 4.69 6.29l-24.2 25a9.61 9.61 0 1 1-13.81-13.38A9.89 9.89 0 0 1 845.8 95.1Z"></path>
  <circle cx="957.96" cy="637.11" r="185.64" fill="#fff"></circle>
  <path fill="#9777c7" d="M958,823.75C855,823.75,771.32,740,771.32,637.11S855,450.46,958,450.46s186.64,83.73,186.64,186.65S1060.87,823.75,958,823.75Zm0-371.29c-101.81,0-184.64,82.83-184.64,184.65S856.15,821.75,958,821.75s184.64-82.83,184.64-184.64S1059.77,452.46,958,452.46Z"></path>
  <path fill="#ffcb3b" d="M832.27,642.38A125.68,125.68,0,0,0,869,725l-29.73,29.69a167.19,167.19,0,0,1-48.69-112.33Z"></path>
  <path fill="#fa5dd9" d="m868.18 494 21 36.38a125.89 125.89 0 0 0-57 103.5H790.45A166.76 166.76 0 0 1 868.18 494ZM1038 488.13l-21 36.33A126.18 126.18 0 0 0 896.43 526l-21-36.32A169.84 169.84 0 0 1 1038 488.13Z"></path>
  <path fill="#57d8f3" d="M1077,754.76,1047.28,725a126,126,0,0,0-22.9-196.37l21-36.36A165.82,165.82,0,0,1,1077,517.08C1142.18,582.27,1142.18,689.57,1077,754.76Z"></path>
  <polygon fill="#3c217d" points="1118.04 547.85 968.75 617.89 982.22 639.28 1118.04 547.85"></polygon>
  <circle cx="957.96" cy="637.11" r="37.14" fill="#fff"></circle>
  <path fill="#9777c7" d="M958,675.25a38.15,38.15,0,1,1,38.14-38.14A38.18,38.18,0,0,1,958,675.25ZM958,601a36.15,36.15,0,1,0,36.14,36.15A36.19,36.19,0,0,0,958,601Z"></path>
  <circle cx="957.96" cy="637.11" r="20.77" fill="#b182ff"></circle>
  <path fill="#212664" d="M262.56 826.28H179.24a1.5 1.5 0 0 1 0-3h83.32a1.5 1.5 0 0 1 0 3ZM875.46 881.42H705.17a1.5 1.5 0 0 1 0-3H875.46a1.5 1.5 0 0 1 0 3Z"></path>
  <ellipse cx="366.08" cy="170.76" fill="#ffcb3b" rx="116.56" ry="88.19"></ellipse>
  <path fill="#fff" d="M461.84,166.22a1,1,0,0,1-1-1c0-36.34-39.22-65.91-87.43-65.91a1,1,0,0,1,0-2c49.31,0,89.43,30.46,89.43,67.91A1,1,0,0,1,461.84,166.22Z"></path>
  <path fill="#ffcb3b" d="M280.43,229.54c25.29,31.09,53.39,43.54,80.76,51.34-11.25-14.22-20.39-28.94-26.57-44.35Z"></path>
  <path fill="#272c64" d="M305.84 205.65c0-2.13.08-5.37.23-9.7l.15-9.62q0-5.36-.23-16-.3-9.39-.3-15.89c0-3.66.66-5.5 2-5.5a9.82 9.82 0 0 1 7.91 3.29 13 13 0 0 1 2.79 8.71q0 6.1-4.89 12.68a27 27 0 0 1 5.69 7.71 21.51 21.51 0 0 1 1.64 8.79c0 2.09-.06 3.75-.19 5a16.75 16.75 0 0 1-.72 3.48 9.45 9.45 0 0 1-1.49 2.9 10.92 10.92 0 0 1-2.56 2.29 23.43 23.43 0 0 1-4 2.14l-1.52.38a4.61 4.61 0 0 1-1.53.38h-.15C306.78 206.72 305.84 206.37 305.84 205.65Zm6-33.84a11 11 0 0 0 2.52-3.82 24.07 24.07 0 0 0 1.53-4.62 20.76 20.76 0 0 0 .53-4.39 7.81 7.81 0 0 0-1.95-5 5.62 5.62 0 0 0-4.39-2.37c-1.32 0-2 1.1-2 3.28 0 3.42.05 6.47.15 9.17l.15 9.17.23.07A4.63 4.63 0 0 0 311.8 171.81ZM314 202.18a10.85 10.85 0 0 0 3.43-4.17 12.59 12.59 0 0 0 1.26-5.57q0-13.68-6.57-16.43a8.34 8.34 0 0 0-2 .39 6.8 6.8 0 0 1-1.76.45q.39 12.47.38 26.82H309l.23.07A8.06 8.06 0 0 0 314 202.18ZM333.19 171.13v-3.06a70.82 70.82 0 0 1 .76-11.15 21.52 21.52 0 0 1 1.26-4.89 8 8 0 0 1 2.18-3.06 4.55 4.55 0 0 1 3.36-1.3 7.8 7.8 0 0 1 3.36.73 7.55 7.55 0 0 1 2.52 1.87 11.23 11.23 0 0 1 1.53 2.83 25.87 25.87 0 0 1 1.07 3.36l.61 3.59a169 169 0 0 1 1.83 23.15v.22q0 3.83-.15 7a65.3 65.3 0 0 1-.84 8 17.3 17.3 0 0 1-.88 3.59 18.7 18.7 0 0 1-1.49 3.06 5 5 0 0 1-4.5 2.75Q333.19 207.87 333.19 171.13Zm13 33.19a10.87 10.87 0 0 0 1.53-3.94 64.11 64.11 0 0 0 1.53-10.46c.1-2.75.15-5.43.15-8v-.31l-.07-7.64c-.11-2.75-.41-6.31-.92-10.69a41.11 41.11 0 0 0-2.52-9.55 7.46 7.46 0 0 0-2-3 4.12 4.12 0 0 0-2.71-1.07 2.92 2.92 0 0 0-2.29 1.22 9.34 9.34 0 0 0-1.6 3.44 42.16 42.16 0 0 0-1.53 9.47q-.22 3.75-.23 7.72v3.74a108 108 0 0 0 1 13 73.49 73.49 0 0 0 1.53 8.63 22.39 22.39 0 0 0 2.44 6.19q1.53 2.67 3.52 2.67A2.76 2.76 0 0 0 346.17 204.32ZM365.12 171.13v-3.06a70.82 70.82 0 0 1 .76-11.15 21.52 21.52 0 0 1 1.26-4.89 8 8 0 0 1 2.18-3.06 4.58 4.58 0 0 1 3.36-1.3 7.8 7.8 0 0 1 3.36.73 7.55 7.55 0 0 1 2.52 1.87 11.23 11.23 0 0 1 1.53 2.83 24.42 24.42 0 0 1 1.07 3.36l.61 3.59a169.15 169.15 0 0 1 1.84 23.15v.22c0 2.55-.06 4.89-.16 7a65.3 65.3 0 0 1-.84 8 16.69 16.69 0 0 1-.88 3.59 17.93 17.93 0 0 1-1.49 3.06 5 5 0 0 1-4.5 2.75Q365.12 207.87 365.12 171.13Zm13 33.19a10.52 10.52 0 0 0 1.53-3.94 63 63 0 0 0 1.53-10.46c.1-2.75.15-5.43.15-8v-.31l-.07-7.64c-.11-2.75-.41-6.31-.92-10.69a41.11 41.11 0 0 0-2.52-9.55 7.36 7.36 0 0 0-2-3 4.12 4.12 0 0 0-2.71-1.07 2.92 2.92 0 0 0-2.29 1.22 9.34 9.34 0 0 0-1.6 3.44 42.16 42.16 0 0 0-1.53 9.47q-.22 3.75-.23 7.72v3.74a108 108 0 0 0 1 13 73.49 73.49 0 0 0 1.53 8.63 22.39 22.39 0 0 0 2.45 6.19q1.51 2.67 3.51 2.67A2.76 2.76 0 0 0 378.1 204.32ZM399.07 207.83a6.09 6.09 0 0 1-1.56-.5 3.09 3.09 0 0 1-1.38-1.29c0-.62.28-.92.84-.92a6 6 0 0 1 2.14.53 4.84 4.84 0 0 0 2.06.62 4.36 4.36 0 0 0 3.1-1.38 9 9 0 0 0 2.18-3.59 23.86 23.86 0 0 0 1.52-7.72A27.71 27.71 0 0 0 406.9 186a37 37 0 0 0-2.82-7.18c-.26-.56-.69-1.4-1.3-2.52-1.27-2.55-2.24-4.53-2.9-6a32.91 32.91 0 0 1-1.76-4.73 25 25 0 0 1-1.07-7.41 15 15 0 0 1 .8-4.86 10 10 0 0 1 2.56-4 6.16 6.16 0 0 1 4.28-1.75 4.75 4.75 0 0 1 2.21.72c.87.49 1.3 1 1.3 1.42s-.15.61-.46.61a3 3 0 0 1-1.22-.38 2.65 2.65 0 0 0-1.3-.39 4.32 4.32 0 0 0-3.09 1.3 7.72 7.72 0 0 0-1.95 3.21 11 11 0 0 0-.53 3.51 26.13 26.13 0 0 0 .76 6.15 30.82 30.82 0 0 0 2.06 5.92l2.68 5.58.76 1.6q1.6 3.28 2.48 5.43a29.35 29.35 0 0 1 1.49 4.81 30.26 30.26 0 0 1 .84 6.88 20 20 0 0 1-2.29 9 10 10 0 0 1-3.05 3.59 7.05 7.05 0 0 1-4.21 1.38A13.91 13.91 0 0 1 399.07 207.83ZM430.81 206.15a2.51 2.51 0 0 1-.38-1.41v-13.6l-.15-12.22q-.22-8.17-.23-12.23l.08-2.21v-5a82.48 82.48 0 0 0-.16-8.25h-8.63a2.1 2.1 0 0 1-1.11-.3.94.94 0 0 1-.49-.84 1.14 1.14 0 0 1 .23-.84 2.45 2.45 0 0 1 1.22-.38 14.9 14.9 0 0 1 3.05-.23h7.64l8.41-.08a1.9 1.9 0 0 1 1.26.31 1.25 1.25 0 0 1 .34 1c0 .76-.48 1.14-1.45 1.14h-6.8l-.69.08.08 4.43v43.32l.08 5.65v.15a5.9 5.9 0 0 1-.08 1 1.14 1.14 0 0 1-.31.65.81.81 0 0 1-.76.38A1.3 1.3 0 0 1 430.81 206.15Z"></path>
  <path fill="#212664" d="M1178.55,826.32H305.85a1.5,1.5,0,0,1,0-3h872.7a1.5,1.5,0,0,1,0,3Z"></path>
  <path fill="#9777c7" d="M277.8 597.86c-4.7 0-7.06-1.67-9.34-3.29-2.12-1.51-4.12-2.93-8.18-2.93s-6.06 1.42-8.18 2.93c-2.28 1.62-4.64 3.29-9.34 3.29s-7-1.67-9.33-3.29c-2.12-1.51-4.12-2.93-8.18-2.93s-6.06 1.42-8.18 2.93c-2.28 1.62-4.64 3.29-9.33 3.29s-7.06-1.67-9.34-3.29c-2.12-1.51-4.12-2.93-8.18-2.93a1 1 0 0 1 0-2c4.7 0 7.06 1.68 9.34 3.3 2.12 1.5 4.12 2.92 8.18 2.92s6-1.42 8.17-2.92c2.28-1.62 4.64-3.3 9.34-3.3s7.05 1.68 9.33 3.3c2.12 1.5 4.12 2.92 8.18 2.92s6.06-1.42 8.18-2.92c2.28-1.62 4.64-3.3 9.34-3.3s7.06 1.68 9.34 3.3c2.12 1.5 4.12 2.92 8.18 2.92s6.06-1.42 8.18-2.92c2.28-1.62 4.64-3.3 9.34-3.3a1 1 0 1 1 0 2c-4.06 0-6.06 1.42-8.18 2.93C284.86 596.19 282.5 597.86 277.8 597.86ZM277.8 620.22c-4.7 0-7.06-1.67-9.34-3.29-2.12-1.51-4.12-2.93-8.18-2.93s-6.06 1.42-8.18 2.93c-2.28 1.62-4.64 3.29-9.34 3.29s-7-1.67-9.33-3.29c-2.12-1.51-4.12-2.93-8.18-2.93s-6.06 1.42-8.18 2.93c-2.28 1.62-4.64 3.29-9.33 3.29s-7.06-1.67-9.34-3.29c-2.12-1.51-4.12-2.93-8.18-2.93a1 1 0 0 1 0-2c4.7 0 7.06 1.68 9.34 3.3 2.12 1.5 4.12 2.92 8.18 2.92s6-1.42 8.17-2.92c2.28-1.62 4.64-3.3 9.34-3.3s7.05 1.68 9.33 3.3c2.12 1.5 4.12 2.92 8.18 2.92s6.06-1.42 8.18-2.92c2.28-1.62 4.64-3.3 9.34-3.3s7.06 1.68 9.34 3.3c2.12 1.5 4.12 2.92 8.18 2.92s6.06-1.42 8.18-2.92c2.28-1.62 4.64-3.3 9.34-3.3a1 1 0 0 1 0 2c-4.06 0-6.06 1.42-8.18 2.93C284.86 618.55 282.5 620.22 277.8 620.22ZM1066.3 143.55c-4.7 0-7-1.68-9.34-3.3-2.11-1.5-4.12-2.92-8.18-2.92s-6.06 1.42-8.18 2.92c-2.28 1.62-4.63 3.3-9.33 3.3s-7.06-1.68-9.34-3.3c-2.12-1.5-4.12-2.92-8.18-2.92s-6.06 1.42-8.17 2.92c-2.28 1.62-4.64 3.3-9.34 3.3s-7-1.68-9.33-3.3c-2.12-1.5-4.12-2.92-8.18-2.92a1 1 0 0 1 0-2c4.69 0 7 1.67 9.33 3.29 2.12 1.51 4.12 2.93 8.18 2.93s6.06-1.42 8.18-2.93c2.28-1.62 4.63-3.29 9.33-3.29s7.06 1.67 9.34 3.29c2.12 1.51 4.12 2.93 8.18 2.93s6.06-1.42 8.18-2.93c2.28-1.62 4.64-3.29 9.33-3.29s7.06 1.67 9.34 3.29c2.12 1.51 4.12 2.93 8.18 2.93s6.07-1.42 8.18-2.93c2.28-1.62 4.64-3.29 9.34-3.29a1 1 0 0 1 0 2c-4.06 0-6.06 1.42-8.18 2.92C1073.36 141.87 1071 143.55 1066.3 143.55ZM1066.3 165.91c-4.7 0-7-1.68-9.34-3.3-2.11-1.5-4.12-2.92-8.18-2.92s-6.06 1.42-8.18 2.92c-2.28 1.62-4.63 3.3-9.33 3.3s-7.06-1.68-9.34-3.3c-2.12-1.5-4.12-2.92-8.18-2.92s-6.06 1.42-8.17 2.92c-2.29 1.62-4.64 3.3-9.34 3.3s-7-1.68-9.33-3.3c-2.12-1.5-4.12-2.92-8.18-2.92a1 1 0 0 1 0-2c4.69 0 7 1.67 9.33 3.29 2.12 1.51 4.12 2.93 8.18 2.93s6.06-1.42 8.18-2.93c2.28-1.62 4.63-3.29 9.33-3.29s7.06 1.67 9.34 3.29c2.12 1.51 4.12 2.93 8.18 2.93s6.06-1.42 8.18-2.93c2.28-1.62 4.64-3.29 9.33-3.29s7.06 1.67 9.34 3.29c2.12 1.51 4.12 2.93 8.18 2.93s6.07-1.42 8.18-2.93c2.28-1.62 4.64-3.29 9.34-3.29a1 1 0 0 1 0 2c-4.06 0-6.06 1.42-8.18 2.92C1073.36 164.23 1071 165.91 1066.3 165.91ZM191.14 364.25a1 1 0 0 1-.66-.24 1 1 0 0 1-.1-1.41L242 303.24a1 1 0 0 1 1.42-.09 1 1 0 0 1 .09 1.41l-51.63 59.35A1 1 0 0 1 191.14 364.25ZM185.32 348a1 1 0 0 1-.66-.24 1 1 0 0 1-.1-1.41l39.09-44.93a1 1 0 0 1 1.51 1.31l-39.09 44.93A1 1 0 0 1 185.32 348ZM179.5 331.68a1 1 0 0 1-.66-.25 1 1 0 0 1-.1-1.41l26.54-30.5a1 1 0 0 1 1.51 1.31l-26.54 30.5A1 1 0 0 1 179.5 331.68ZM173.68 315.39a1 1 0 0 1-.66-.25 1 1 0 0 1-.1-1.41l14-16.08a1 1 0 0 1 1.42-.1 1 1 0 0 1 .09 1.41l-14 16.08A1 1 0 0 1 173.68 315.39ZM167.86 299.1a1 1 0 0 1-.66-.24 1 1 0 0 1-.1-1.42l1.45-1.65a1 1 0 0 1 1.51 1.31l-1.45 1.66A1 1 0 0 1 167.86 299.1Z"></path>
  <path fill="#57d8f3" d="M239.9 459.39a4.42 4.42 0 0 1-2.52 6.54l-14.78 4.31a4.42 4.42 0 0 1-5.52-5.29L220.74 450a4.41 4.41 0 0 1 7.33-2.14l11.12 10.64A4.22 4.22 0 0 1 239.9 459.39Zm-18.47 5.94a1.32 1.32 0 0 0 .12.16.78.78 0 0 0 .77.18l12.4-3.61a.78.78 0 0 0 .54-.57.74.74 0 0 0-.22-.75l-9.33-8.94a.76.76 0 0 0-.76-.18.79.79 0 0 0-.55.56l-3.06 12.56A.71.71 0 0 0 221.43 465.33ZM862.76 259.8a4.42 4.42 0 0 1-2.52 6.54l-14.78 4.31a4.35 4.35 0 0 1-4.28-1 4.41 4.41 0 0 1-1.24-4.24l3.66-15a4.41 4.41 0 0 1 7.33-2.13l11.12 10.63A4.49 4.49 0 0 1 862.76 259.8Zm-18.47 5.95a.78.78 0 0 0 .89.34l12.4-3.62a.76.76 0 0 0 .54-.56.74.74 0 0 0-.22-.75l-9.33-8.94a.76.76 0 0 0-.76-.18.73.73 0 0 0-.54.56l-3.07 12.55A.72.72 0 0 0 844.29 265.75Z"></path>
  <path fill="#fa5dd9" d="M709.29,617.47l5-5a2.9,2.9,0,0,0-4.1-4.1l-5,5-5-5a2.9,2.9,0,0,0-4.1,4.1l5,5-5,5a2.9,2.9,0,1,0,4.1,4.1l5-5,5,5a2.88,2.88,0,0,0,2.05.85,2.85,2.85,0,0,0,2-.85,2.89,2.89,0,0,0,0-4.1Z"></path>
  <path fill="#ffcb3b" d="M1127.73,483.22a12.81,12.81,0,1,1,12.81-12.8A12.82,12.82,0,0,1,1127.73,483.22Zm0-20.89a8.09,8.09,0,1,0,8.08,8.09A8.09,8.09,0,0,0,1127.73,462.33Z"></path>
</svg>