<svg xmlns="http://www.w3.org/2000/svg" width="512" height="512" id="origami">
  <path fill="#F8CC00" d="M90.964 252.937s-67.21 21.44-67.21 22.972S4.867 381.572 4.867 381.572l43.899-85.756 42.198-42.879z"></path>
  <path fill="#F8CC00" d="M4.867 383.572a2 2 0 0 1-1.968-2.356c5.128-28.278 18.453-102.001 18.854-105.393.008-1.872.517-2.488 34.978-13.874 16.62-5.491 33.457-10.864 33.625-10.918a2 2 0 0 1 2.033 3.308L50.407 297l-43.76 85.482a1.999 1.999 0 0 1-1.78 1.09zm20.725-106.488c-1.324 8.411-10.476 59.128-16.347 91.547l37.741-73.726c.093-.181.212-.347.355-.492l36.506-37.096c-22.972 7.392-53.329 17.419-58.255 19.767zm.162-1.175c0 .057-.018.207-.052.446.033-.135.052-.285.052-.446z"></path>
  <path fill="red" d="m118.911 265.178 23.099-188.52 85.17 168.435-66.794 38.253z"></path>
  <path fill="red" d="M160.386 285.346c-.272 0-.546-.056-.802-.168l-41.476-18.168a1.998 1.998 0 0 1-1.183-2.075l23.099-188.52a2 2 0 0 1 3.77-.66l85.17 168.435a2 2 0 0 1-.791 2.638l-66.793 38.253c-.307.176-.65.265-.994.265zm-39.309-21.403 39.189 17.166 64.272-36.809-81.344-160.866-22.117 180.509z"></path>
  <path fill="#F8CC00" d="M142.01 76.658 335.057 249.49l-71.22-25.137-36.657 20.74z"></path>
  <path fill="#F8CC00" d="M335.057 251.49c-.223 0-.447-.037-.666-.114l-70.361-24.835-35.865 20.292a1.998 1.998 0 0 1-2.77-.838L140.225 77.56a2 2 0 0 1 3.118-2.392L336.391 248a2 2 0 0 1-1.334 3.49zm-71.22-29.137c.225 0 .449.038.666.114l61.693 21.775L148.585 85.229l79.434 157.091 34.834-19.708c.303-.172.642-.259.984-.259z"></path>
  <path fill="red" d="m335.057 249.49 106.249-130.292-38.625 154.158z"></path>
  <path fill="red" d="M402.681 275.356a2.01 2.01 0 0 1-.666-.114l-67.624-23.866a2.002 2.002 0 0 1-.884-3.15l106.249-130.292a2 2 0 0 1 3.49 1.75l-38.625 154.158a2.002 2.002 0 0 1-1.94 1.514zm-64.278-26.805 62.871 22.188 35.91-143.323-98.781 121.135z"></path>
  <path fill="#F8CC00" d="m306.035 295.816-124.551 58.532 324.649 80.992z"></path>
  <path fill="#F8CC00" d="M506.133 437.34c-.16 0-.322-.02-.484-.06L181 356.288a2 2 0 0 1-.366-3.751l124.551-58.531a2 2 0 0 1 1.994.17l200.098 139.523a2 2 0 0 1-1.144 3.641zm-318.712-83.572 308.664 77.004L305.84 298.118l-118.419 55.65z"></path>
  <path fill="red" d="M306.035 295.816 506.133 435.34 402.681 273.356z"></path>
  <path fill="red" d="M506.132 437.34c-.397 0-.797-.118-1.143-.359L304.892 297.457a2 2 0 0 1 .691-3.589l96.646-22.46a2 2 0 0 1 2.139.872L507.82 434.263a2 2 0 0 1-1.688 3.077zM310.866 296.747l188.181 131.214-97.291-152.336-90.89 21.122z"></path>
  <g fill="#F8CC00">
    <path d="m263.837 224.353 138.844 49.003-96.646 22.46z"></path>
    <path d="M306.035 297.816a2.002 2.002 0 0 1-1.723-.983l-42.198-71.464a2 2 0 0 1 2.389-2.902l138.844 49.004a2 2 0 0 1-.213 3.834l-96.646 22.46a2.004 2.004 0 0 1-.453.051zm-37.681-69.749 38.658 65.469 88.538-20.576-127.196-44.893z"></path>
  </g>
  <g fill="#F8CC00">
    <path d="m263.837 224.353-103.451 58.532 51.725 23.118z"></path>
    <path d="M212.11 308.003c-.274 0-.551-.056-.815-.174l-51.725-23.118a2 2 0 0 1-.169-3.566l103.45-58.532a2 2 0 0 1 2.675 2.81l-51.726 81.65a1.997 1.997 0 0 1-1.69.93zm-47.292-25.328 46.529 20.796 46.53-73.448-93.059 52.652z"></path>
  </g>
  <g fill="#F8CC00">
    <path d="M212.111 306.003 90.964 252.937l-42.197 42.879 163.344 129.995-30.627-71.463z"></path>
    <path d="M212.111 427.811a2 2 0 0 1-1.246-.436L47.521 297.381a1.998 1.998 0 0 1-.179-2.967l42.198-42.88a2 2 0 0 1 2.228-.429l121.147 53.066a2.002 2.002 0 0 1 .887 2.902l-30.063 47.455 30.212 70.494a2 2 0 0 1-1.84 2.789zM51.751 295.636l155.396 123.668-27.5-64.168a1.998 1.998 0 0 1 .149-1.858l29.38-46.377-117.752-51.58-39.673 40.315z"></path>
  </g>
  <g fill="red">
    <path d="m212.111 425.811 54.578-50.207-85.205-21.256z"></path>
    <path d="M212.111 427.811a1.999 1.999 0 0 1-1.838-1.212l-30.627-71.463a2 2 0 0 1 2.322-2.729l85.206 21.257a2 2 0 0 1 .87 3.412l-54.579 50.206a1.998 1.998 0 0 1-1.354.529zm-27.201-70.547 27.926 65.162 49.766-45.779-77.692-19.383z"></path>
  </g>
  <g fill="red">
    <path d="m48.767 295.816-43.9 85.756 56.66-63.807 68.912 72.315 25.428-9.031z"></path>
    <path d="M130.439 392.08a2 2 0 0 1-1.448-.62l-67.412-70.741L6.363 382.9a2 2 0 0 1-3.276-2.239l43.899-85.756a2.001 2.001 0 0 1 3.026-.653l107.1 85.232a1.999 1.999 0 0 1-.576 3.45l-25.428 9.031a2.007 2.007 0 0 1-.669.115zm-68.912-76.315c.547 0 1.07.224 1.448.62l68.017 71.377 20.81-7.392-102.369-81.467-35.62 69.582 46.219-52.049a2.003 2.003 0 0 1 1.46-.672l.035.001z"></path>
  </g>
  <g fill="red">
    <path d="m181.484 354.348 82.353-129.995 42.198 71.463z"></path>
    <path d="M181.485 356.348a1.998 1.998 0 0 1-1.689-3.071l82.353-129.995c.373-.588 1.024-.916 1.721-.93a2 2 0 0 1 1.69.983l42.199 71.464c.286.484.354 1.067.188 1.605s-.551.981-1.061 1.222l-124.551 58.531a1.986 1.986 0 0 1-.85.191zm82.292-128.163-76.928 121.433 116.346-54.676-39.418-66.757z"></path>
  </g>
</svg>